<?xml version="1.0" standalone="no"?>
<!DOCTYPE svg PUBLIC "-//W3C//DTD SVG 20010904//EN"
 "http://www.w3.org/TR/2001/REC-SVG-20010904/DTD/svg10.dtd">
<svg version="1.0" xmlns="http://www.w3.org/2000/svg"
 width="36.000000pt" height="36.000000pt" viewBox="0 0 36.000000 36.000000"
 preserveAspectRatio="xMidYMid meet">
<metadata>
Created by potrace 1.13, written by Peter Selinger 2001-2015
</metadata>
<g transform="translate(0.000000,36.000000) scale(0.100000,-0.100000)"
fill="#000000" stroke="none">
<path d="M115 337 c-43 -20 -93 -80 -101 -122 -11 -60 4 -106 50 -151 67 -67
154 -72 223 -11 64 56 79 127 43 201 -37 77 -141 116 -215 83z m132 -140 l43
-72 -86 -3 c-48 -2 -89 -1 -91 2 -2 2 15 38 39 79 23 42 45 74 47 71 3 -2 24
-37 48 -77z"/>
</g>
</svg>
